<svg className='w-full h-full' xmlns="http://www.w3.org/2000/svg" viewBox="0 0 900 500"><title>bg-grid-dotted-wide-2</title><defs><radialGradient cx="50.3533435%" cy="90.5912249%" fx="50.3533435%" fy="90.5912249%" r="184.257145%" gradientTransform="translate(0.5035, 0.9059), scale(0.2348, 1), scale(1, 0.4119), translate(-0.5035, -0.9059)" id="radialGradient-1"><stop stop-color="#71717A" offset="0%"></stop><stop stop-color="#FFFFFF" offset="100%"></stop></radialGradient></defs><g id="bg-grid-dotted-wide-2" stroke="none" stroke-width="1" fill="none" fill-rule="evenodd" opacity="0.25" stroke-dasharray="3.287617680398781,5.728673808094876" stroke-linecap="round" stroke-linejoin="round"><path d="M388.121104,200.49103 L307.579112,500 M291.362758,200.49103 L90.7027404,500 M194.604411,200.49103 L-126.173631,500 M97.8460651,200.49103 L-343.050003,500 M1.08771884,200.49103 L-559.926374,500 M-95.6706274,200.49103 L-776.802745,500 M-829.908779,467.023761 L453,467.023761 M-617.587191,388.969908 L452.999884,388.969908 M-418.927906,310.916055 L452.999806,310.916055 M-233.930928,232.862202 L452.99976,232.862202 M1002.33626,200.49103 L1684.29503,500 M905.577917,200.49103 L1467.41865,500 M808.819571,200.49103 L1250.54228,500 M712.061224,200.49103 L1033.66591,500 M615.302878,200.49103 L816.78954,500 M518.544532,200.49103 L599.913168,500 M453,467.023761 L1735.90878,467.023761 M452.999884,388.969908 L1523.58696,388.969908 M452.999806,310.916055 L1324.92752,310.916055 M452.99976,232.862202 L1139.93045,232.862202 M388.121104,197 L386.84993,-102.50897 M291.362758,197 L288.195691,-102.50897 M194.604411,197 L189.541452,-102.50897 M97.8460651,197 L90.8872123,-102.50897 M1.08771884,197 L-7.76702705,-102.50897 M-95.6706274,197 L-106.421266,-102.50897 M-207.575477,-69.5327306 L453,-69.5327306 M-250.337495,8.52112242 L452.999924,8.52112242 M-243.691314,86.5749755 L452.999845,86.5749755 M-193.45953,164.628829 L452.999774,164.628829 M1002.33626,197 L1013.10009,-102.50897 M905.577917,197 L914.445846,-102.50897 M808.819571,197 L815.791606,-102.50897 M712.061224,197 L717.137367,-102.50897 M615.302878,197 L618.483128,-102.50897 M518.544532,197 L519.828889,-102.50897 M453,-69.5327306 L1113.57548,-69.5327306 M452.999924,8.52112242 L1156.33734,8.52112242 M452.999845,86.5749755 L1149.691,86.5749755 M452.999774,164.628829 L1099.45908,164.628829" id="Combined-Shape" stroke="url(#radialGradient-1)" stroke-width="1.23285663"></path></g></svg>
